<svg width="30" height="30" viewBox="0 0 30 30" fill="none" xmlns="http://www.w3.org/2000/svg">
<path d="M12.2961 8.73398C11.9867 8.55535 11.6055 8.55535 11.2961 8.73398C10.9867 8.91261 10.7961 9.24274 10.7961 9.6L10.7961 19.9923C10.7961 20.3496 10.9867 20.6797 11.2961 20.8583C11.6055 21.037 11.9867 21.037 12.2961 20.8583L21.2961 15.6622C21.6055 15.4836 21.7961 15.1534 21.7961 14.7962C21.7961 14.4389 21.6055 14.1088 21.2961 13.9301L12.2961 8.73398Z" stroke="#219653" stroke-width="2" stroke-linecap="round" stroke-linejoin="round"/>
<path d="M15 29C7.26801 29 1 22.732 1 15C1 7.26801 7.26801 1 15 1C22.732 1 29 7.26801 29 15C29 22.732 22.732 29 15 29Z" stroke="#219653" stroke-width="2" stroke-linejoin="round"/>
</svg>
